<?xml version="1.0" encoding="utf-8"?>
<!-- Generator: Adobe Illustrator 18.1.1, SVG Export Plug-In . SVG Version: 6.00 Build 0)  -->
<svg version="1.1" id="Layer_1" xmlns="http://www.w3.org/2000/svg" xmlns:xlink="http://www.w3.org/1999/xlink" x="0px" y="0px"
	 viewBox="0 0 1000 1000" enable-background="new 0 0 1000 1000" xml:space="preserve">
<g>
	<g>
		<linearGradient id="SVGID_1_" gradientUnits="userSpaceOnUse" x1="500" y1="33.0235" x2="500" y2="966.9764">
			<stop  offset="0.1378" style="stop-color:#00ADEE"/>
			<stop  offset="1" style="stop-color:#262261"/>
		</linearGradient>
		<path fill="url(#SVGID_1_)" d="M829.7,225.6c-2.7-4.8-5.6-9.6-8.6-14.3C756.7,108.4,644.3,34.1,499.6,33
			c-52.9,2.3-103.2,13.1-148.7,31.8c0,0,0,0-0.1,0c0,0,0,0-0.1,0c-0.7,0.3-1.3,0.5-2,0.8c0,0,0,0-0.1,0
			c-10.2,4.2-20.1,8.9-29.7,13.9l0,0c-2.5,1.3-5.1,2.7-7.6,4h0c-69.1,37.8-124.5,95.7-157.4,170.4c-2,4.5-3.9,9.1-5.7,13.7
			c-7.9,20.1-14.3,41.3-18.9,63.7c-4,17.5-6.8,34.6-8.7,51.4c-0.4,3.4-0.7,6.8-1,10.1c-3.3,39.2-0.8,76.5,7.3,112v0
			c1.3,5.5,2.7,11,4.2,16.4c21.5,76.2,69.5,143.2,141.6,200c67.9,53.5,125.7,115.2,169.7,189.5c6.7,11.4,13.3,22.9,20.6,33.9
			c19.5,29.3,54,29.6,73.7,0.7c5.2-7.6,10-15.6,14.4-23.7c45-82.8,107-149.5,182.6-206.1C901,587.6,916.7,378.7,829.7,225.6z
			 M730.7,466.7c-0.5,2.6-1.1,5.1-1.8,7.7l0,0c-133.8-199.1-285-110.2-285-110.2c90,13.8,103,186.1-24.2,233.5
			c-33,12.3-70.4,3.3-94.1-22.7c-0.1-0.1-0.2-0.3-0.4-0.4c-8.8-9.6-16.7-20-23.8-31c-23.7-36.9-37.3-80.8-36.8-127.8
			c0.5-10.4,1.5-20.4,3-30.1c0.1-0.6,0.2-1.2,0.3-1.8c13-83.6,59.3-141.1,118-172.4c1-0.5,2-1.1,3-1.6
			c136.6-70.2,337.7-0.9,346.9,207.8C735.8,434.5,734,450.9,730.7,466.7z"/>
		<path fill="#00ADEE" d="M399.8,228c-0.9,0.5-1.8,1-2.7,1.4c-52.9,28.2-94.7,80-106.4,155.4c-0.1,0.5-0.2,1.1-0.2,1.6
			c-1.3,8.7-2.2,17.8-2.7,27.1c-0.1,9.3,0.5,18.5,1.6,27.6c0-1.5-0.1-2.9,0-4.4c0.5-9.8,1.4-19.3,2.8-28.4c0.1-0.6,0.2-1.1,0.2-1.7
			c12.3-79,56-133.2,111.4-162.8c1-0.5,1.9-1,2.9-1.5c76-39.1,173.1-32.4,241.9,20C582.8,198.7,479.2,187.2,399.8,228z"/>
		
			<linearGradient id="SVGID_2_" gradientUnits="userSpaceOnUse" x1="-1879.6945" y1="-668.4577" x2="-1879.6945" y2="-606.6365" gradientTransform="matrix(-0.6527 -0.7576 -0.7576 0.6527 -1273.7947 -611.7839)">
			<stop  offset="0.1378" style="stop-color:#00ADEE"/>
			<stop  offset="1" style="stop-color:#262261"/>
		</linearGradient>
		<path fill="url(#SVGID_2_)" d="M478.6,398.5c-36.1-46.7-93.7-14.2-77.2,5C422.8,428.4,435.7,376.9,478.6,398.5z"/>
	</g>
</g>
</svg>
