<?xml version="1.0" encoding="utf-8"?>
<!-- Generator: Adobe Illustrator 18.1.1, SVG Export Plug-In . SVG Version: 6.00 Build 0)  -->
<svg version="1.1" id="Layer_1" xmlns="http://www.w3.org/2000/svg" xmlns:xlink="http://www.w3.org/1999/xlink" x="0px" y="0px"
	 viewBox="0 0 1200 1000" enable-background="new 0 0 1200 1000" xml:space="preserve">
<g>
	<g>
		<linearGradient id="SVGID_1_" gradientUnits="userSpaceOnUse" x1="594.9412" y1="179.0714" x2="594.9412" y2="583.7637">
			<stop  offset="0.1378" style="stop-color:#00ADEE"/>
			<stop  offset="1" style="stop-color:#262261"/>
		</linearGradient>
		<path fill="url(#SVGID_1_)" d="M737.8,262.5c-1.2-2.1-2.4-4.2-3.7-6.2c-27.9-44.6-76.6-76.8-139.3-77.3
			c-22.9,1-44.7,5.7-64.5,13.8c0,0,0,0,0,0c0,0,0,0,0,0c-0.3,0.1-0.6,0.2-0.8,0.3c0,0,0,0,0,0c-4.4,1.8-8.7,3.8-12.9,6l0,0
			c-1.1,0.6-2.2,1.2-3.3,1.8h0c-30,16.4-53.9,41.5-68.2,73.8c-0.9,1.9-1.7,3.9-2.5,5.9c-3.4,8.7-6.2,17.9-8.2,27.6
			c-1.7,7.6-3,15-3.8,22.3c-0.2,1.5-0.3,2.9-0.4,4.4c-1.4,17-0.3,33.2,3.2,48.5v0c0.5,2.4,1.2,4.8,1.8,7.1c9.3,33,30.1,62,61.4,86.7
			c29.4,23.2,54.4,49.9,73.6,82.1c2.9,4.9,5.8,9.9,8.9,14.7c8.4,12.7,23.4,12.8,31.9,0.3c2.3-3.3,4.3-6.8,6.3-10.3
			c19.5-35.9,46.4-64.8,79.1-89.3C768.7,419.4,775.5,328.8,737.8,262.5z M694.9,367c-0.2,1.1-0.5,2.2-0.8,3.3l0,0
			c-58-86.3-123.5-47.7-123.5-47.7c39,6,44.6,80.6-10.5,101.2c-14.3,5.3-30.5,1.4-40.8-9.8c-0.1-0.1-0.1-0.1-0.2-0.2
			c-3.8-4.2-7.3-8.7-10.3-13.4c-10.3-16-16.2-35-16-55.4c0.2-4.5,0.7-8.8,1.3-13c0-0.3,0.1-0.5,0.1-0.8
			c5.6-36.2,25.7-61.1,51.1-74.7c0.4-0.2,0.9-0.5,1.3-0.7c59.2-30.4,146.3-0.4,150.3,90C697.1,353,696.4,360.1,694.9,367z"/>
		<path fill="#00ADEE" d="M551.5,263.6c-0.4,0.2-0.8,0.4-1.2,0.6c-22.9,12.2-41,34.7-46.1,67.4c0,0.2-0.1,0.5-0.1,0.7
			c-0.6,3.8-1,7.7-1.2,11.8c0,4.1,0.2,8,0.7,12c0-0.6,0-1.3,0-1.9c0.2-4.2,0.6-8.4,1.2-12.3c0-0.2,0.1-0.5,0.1-0.7
			c5.3-34.2,24.3-57.7,48.3-70.5c0.4-0.2,0.8-0.4,1.2-0.7c32.9-16.9,75-14,104.8,8.7C630.8,250.8,585.9,245.9,551.5,263.6z"/>
		
			<linearGradient id="SVGID_2_" gradientUnits="userSpaceOnUse" x1="-1754.7452" y1="-713.5846" x2="-1754.7452" y2="-686.7968" gradientTransform="matrix(-0.6527 -0.7576 -0.7576 0.6527 -1108.528 -536.0195)">
			<stop  offset="0.1378" style="stop-color:#00ADEE"/>
			<stop  offset="1" style="stop-color:#262261"/>
		</linearGradient>
		<path fill="url(#SVGID_2_)" d="M585.7,337.4c-15.6-20.2-40.6-6.2-33.4,2.1C561.5,350.4,567.1,328.1,585.7,337.4z"/>
	</g>
	<g>
		<g>
			<path fill="#00ADEE" d="M686.9,648.2c-15.6,0-20.4,3.3-20.4,7.4c0,4.7,5,7.1,19.5,9.8c33,6.2,45.6,15.2,45.6,32.1
				c0,20.1-15.5,31.8-46.5,31.8c-15.2,0-31.2-1.8-46.2-5.6v-23c12.8,3.6,29.3,6.3,45.6,6.3c15.5,0,18.5-3.5,18.5-7.8
				c0-4.7-5-7.1-20-9.6c-32.6-5.7-45-15.9-45-32.9c0-19.7,17.3-30.8,48-30.8c13.8,0,25.5,1.8,39.5,5.6v23
				C710.1,650.2,699,648.2,686.9,648.2z"/>
			<path fill="#00ADEE" d="M837.8,660.4c0,23.7-12,34.8-36.6,34.8h-31.4v32.7h-26.4V627.4h57.8C825.8,627.4,837.8,638.3,837.8,660.4
				z M796.9,674.2c8.4,0,12.9-4.2,12.9-13.8c0-8-4.5-12-12.9-12h-27v25.8H796.9z"/>
			<path fill="#00ADEE" d="M901,729.3c-36.2,0-54.2-15.5-54.2-51.2c0-36.6,18-52.1,54.2-52.1c36.2,0,54,15.5,54,52.1
				C955,713.8,937.2,729.3,901,729.3z M874.1,677.6c0,20.4,8.1,29.4,26.9,29.4c18.6,0,26.7-9,26.7-29.4s-8.1-29.4-26.7-29.4
				C882.3,648.2,874.1,657.2,874.1,677.6z"/>
			<path fill="#00ADEE" d="M1055.3,648.4h-35v79.5h-26.4v-79.5h-35v-21h96.3V648.4z"/>
		</g>
		<g>
			<path fill="#262261" d="M156.5,763.6l15,24.3l15-24.3h5.7L174,792.7v14.6h-4.8v-14.6l-18.3-29.1H156.5z"/>
			<path fill="#262261" d="M217.3,807.9c-13.8,0-20.8-7.6-20.8-22.5c0-14.7,6.9-22.4,20.8-22.4c13.8,0,20.8,7.6,20.8,22.4
				C238.1,800.2,231.1,807.9,217.3,807.9z M201.5,785.4c0,12,5.1,18.1,15.8,18.1c10.6,0,15.8-6.1,15.8-18.1c0-12-5.2-18.1-15.8-18.1
				C206.6,767.3,201.5,773.4,201.5,785.4z"/>
			<path fill="#262261" d="M249.9,763.6v26.9c0,9.7,6,13,13.1,13c7,0,13.1-3.3,13.1-13v-26.9h4.9v26.6c0,11.6-7.2,17.8-17.9,17.8
				s-17.9-6.1-17.9-17.8v-26.6H249.9z"/>
			<path fill="#262261" d="M323.9,777.1c0,7.3-3.3,11.8-9.9,13.2l11.2,16.9h-5.9l-10.7-16.4h-14.2v16.4h-4.9v-43.7h19.6
				C318.9,763.6,323.9,767.8,323.9,777.1z M308.9,786.7c6.7,0,9.9-3.5,9.9-9.5c0-6.5-3.2-9.3-9.9-9.3h-14.6v18.9H308.9z"/>
			<path fill="#262261" d="M351.9,763.6v26.9c0,9.7,6,13,13.1,13c7,0,13.1-3.3,13.1-13v-26.9h4.9v26.6c0,11.6-7.2,17.8-17.9,17.8
				s-17.9-6.1-17.9-17.8v-26.6H351.9z"/>
			<path fill="#262261" d="M407.6,763c3.4,0,4.9,1.8,6,4.8l14.9,39.5h-5.4l-3.9-10.4H396l-3.9,10.4h-5.4l14.9-39.5
				C402.7,764.8,404.2,763,407.6,763z M417.7,792.7l-8.4-22.5c-0.5-1.4-1-1.9-1.7-1.9c-0.6,0-1.1,0.4-1.7,2l-8.4,22.4H417.7z"/>
			<path fill="#262261" d="M464.6,763.6v4.2h-26.4v15.5h25.3v4.2h-25.3v9.1c0,3.9,2.3,6.5,6,6.5h20.5v4.2h-21.6c-5.8,0-9.8-4-9.8-10
				v-33.7H464.6z"/>
			<path fill="#262261" d="M506.3,763c3.4,0,4.9,1.8,6,4.8l14.9,39.5h-5.4l-3.9-10.4h-23.2l-3.9,10.4h-5.4l14.9-39.5
				C501.4,764.8,502.9,763,506.3,763z M516.3,792.7l-8.4-22.5c-0.5-1.4-1-1.9-1.7-1.9c-0.6,0-1.1,0.4-1.7,2l-8.4,22.4H516.3z"/>
			<path fill="#262261" d="M571.1,785.4c0,14.6-6.9,21.9-20.8,21.9h-17.1v-43.7h17.1C564.2,763.6,571.1,770.8,571.1,785.4z
				 M550.1,803c10.6,0,16.1-6,16.1-17.6c0-11.7-5.4-17.6-16.1-17.6h-12V803H550.1z"/>
			<path fill="#262261" d="M579.7,763.6l13.8,36.9c0.6,1.5,1,1.9,1.7,1.9s1.1-0.4,1.7-1.9l13.8-36.9h5.4l-14.9,39.5
				c-1.1,2.9-2.6,4.8-6,4.8c-3.3,0-4.9-1.8-6-4.8l-14.9-39.5H579.7z"/>
			<path fill="#262261" d="M653.4,763.6v4.2H627v15.5h25.3v4.2H627v9.1c0,3.9,2.3,6.5,6,6.5h20.5v4.2h-21.6c-5.8,0-9.8-4-9.8-10
				v-33.7H653.4z"/>
			<path fill="#262261" d="M666,763.6l26.7,36.1v-36.1h4.7v43.7h-4.7L666,771.2v36.1h-4.7v-43.7H666z"/>
			<path fill="#262261" d="M740.4,767.8h-15.7v39.5h-4.8v-39.5h-15.7v-4.2h36.2V767.8z"/>
			<path fill="#262261" d="M752,763.6v26.9c0,9.7,6,13,13.1,13c7,0,13.1-3.3,13.1-13v-26.9h4.9v26.6c0,11.6-7.2,17.8-17.9,17.8
				s-17.9-6.1-17.9-17.8v-26.6H752z"/>
			<path fill="#262261" d="M826,777.1c0,7.3-3.3,11.8-9.9,13.2l11.2,16.9h-5.9l-10.7-16.4h-14.2v16.4h-4.9v-43.7h19.6
				C821,763.6,826,767.8,826,777.1z M811,786.7c6.7,0,9.9-3.5,9.9-9.5c0-6.5-3.2-9.3-9.9-9.3h-14.6v18.9H811z"/>
			<path fill="#262261" d="M865.2,763.6v4.2h-26.4v15.5h25.3v4.2h-25.3v9.1c0,3.9,2.3,6.5,6,6.5h20.5v4.2h-21.6c-5.8,0-9.8-4-9.8-10
				v-33.7H865.2z"/>
			<path fill="#262261" d="M904.5,767.3c-8.2,0-12.5,2.5-12.5,7.4c0,5,4.2,6.7,12.1,8.2c11.6,2.3,17,5.2,17,12.9
				c0,7.9-5.9,12-17.7,12c-5.1,0-10.8-0.7-15.5-2.2v-4.6c4.8,1.5,10.4,2.3,15.5,2.3c8.4,0,12.7-2.5,12.7-7.4c0-5-4.2-6.7-12.7-8.4
				c-11.1-2.2-16.4-5.1-16.4-12.7c0-8.2,6.3-12.1,17.5-12.1c5.2,0,10.4,0.7,14.6,2.2v4.5C914.1,768.1,909.1,767.3,904.5,767.3z"/>
			<path fill="#262261" d="M963.8,778.2c0,9.5-4.8,14.4-14.7,14.4H933v14.7h-4.9v-43.7H949C958.9,763.6,963.8,768.4,963.8,778.2z
				 M948.8,788.4c6.6,0,9.9-3.5,9.9-10.2c0-6.9-3.3-10.4-9.9-10.4H933v20.6H948.8z"/>
			<path fill="#262261" d="M990.3,807.9c-13.8,0-20.8-7.6-20.8-22.5c0-14.7,6.9-22.4,20.8-22.4c13.8,0,20.8,7.6,20.8,22.4
				C1011.1,800.2,1004.2,807.9,990.3,807.9z M974.5,785.4c0,12,5.1,18.1,15.8,18.1c10.6,0,15.8-6.1,15.8-18.1
				c0-12-5.2-18.1-15.8-18.1C979.6,767.3,974.5,773.4,974.5,785.4z"/>
			<path fill="#262261" d="M1050.9,767.8h-15.7v39.5h-4.8v-39.5h-15.7v-4.2h36.2V767.8z"/>
		</g>
		<g>
			<linearGradient id="SVGID_3_" gradientUnits="userSpaceOnUse" x1="386.1748" y1="512.4976" x2="386.1748" y2="673.6538">
				<stop  offset="0.1378" style="stop-color:#00ADEE"/>
				<stop  offset="1" style="stop-color:#262261"/>
			</linearGradient>
			<path fill="url(#SVGID_3_)" d="M151.2,705c0,12.9,9.5,23,23,23h51.6v-14h-47.4c-6.5,0-11-5-11-11.9v-17.4h56.1v-14.1h-56.1v-29.3
				h58.7v-14h-74.9V705z M314.2,702.3l-55.2-74.9h-15.6v100.5h15.6V653l55.2,74.9h15.6V627.4h-15.6V702.3z M601.8,627.4l-30,50.6
				l-30-50.6h-19.4l41.4,66.9v33.6h15.9v-33.6l41.4-66.9H601.8z M470.4,626c-32.3,0-48.3,16.8-48.3,51.8c0,34.7,16.1,51.5,48.3,51.5
				c32.4,0,48.5-16.8,48.5-51.5C518.8,642.8,502.8,626,470.4,626z M470.4,714.6c-21.3,0-31.8-12.2-31.8-36.9s10.5-36.9,31.8-36.9
				c21.5,0,32,12.2,32,36.9S491.8,714.6,470.4,714.6z M353.5,641.3h35.9v53.7c0,14.7-8.1,19.5-20.1,19.5c-5.7,0-15.5-1.1-24.3-3.2
				v15.2c6.9,1.5,17.7,2.7,24.8,2.7c22.1,0,35.7-12.8,35.7-35.4v-66.5h-51.9V641.3z"/>
		</g>
	</g>
</g>
</svg>
